:SAMPLES-PER-SECOND 30
:FULLY-SPECIFIED
:DEGREES
959
root  16.7486 38.6705 -2.97262 5.54645 85.7514 5.10101
RightUpLeg  -30.0098 -9.12488 -6.0921
RightLeg  29.9931 -1.23101 -0.993359
RightFoot  -1.45652 -0.518426 5.87138
RightToes  -1.16417e-010 0 -3.6325e-017
Spine  23.1876 1.26208 -6.87739
Spine1  1.98598 -1.01993 5.88671
HEad  -31.9308 -0.0908149 1.90011
LeftShoulder1  -0.650563 5.3452 -29.148
LeftArm  3.83829 -0.185973 -53.9666
LeftForeArm  51.1067 -72.2389 -30.1281
LeftHand  -0.0773084 3.35881 3.5173
RightShoulder  -0.775598 -5.73459 28.1344
RightArm  10.3614 -21.8721 36.2406
RightForeArm  25.2774 6.23469 4.26457
RightHand  0.0949304 -0.119673 2.2929
LeftUpLeg  -5.15189 2.44694 2.22681
LeftLeg  23.1148 7.88483 4.01962
LeftFoot  -18.0778 -0.0300818 -2.355
LeftToes  3.13772e-010 -3.14513e-011 3.96022e-013
960
root  17.5264 38.6911 -2.76654 15.8392 85.9273 15.665
RightUpLeg  -28.3171 -8.59899 -6.36693
RightLeg  21.0096 -2.14715 -1.16499
RightFoot  -2.6804 -0.449241 5.69673
RightToes  -1.16417e-010 0 -3.6325e-017
Spine  22.8914 0.908356 -7.48329
Spine1  1.87242 -1.60292 6.56824
HEad  -31.2499 0.228036 1.46666
LeftShoulder1  -0.731822 5.55131 -29.5753
LeftArm  4.43318 -1.78542 -53.5652
LeftForeArm  54.1508 -73.6157 -33.1463
LeftHand  -0.0637843 3.56938 2.9924
RightShoulder  -0.741243 -5.65762 27.7716
RightArm  9.98339 -27.1097 34.7644
RightForeArm  20.1195 7.4711 3.81753
RightHand  0.00860505 2.55677 -0.14257
LeftUpLeg  -2.563 2.69681 1.84424
LeftLeg  21.0243 7.3874 3.496
LeftFoot  -18.4536 -0.039082 -2.40676
LeftToes  3.13772e-010 -3.14513e-011 3.96022e-013
961
root  18.4008 38.5901 -2.50595 34.264 85.8685 34.0851
RightUpLeg  -27.4012 -8.169 -7.21143
RightLeg  15.1955 -0.20863 -0.297017
RightFoot  -3.70726 -0.442515 6.24029
RightToes  -1.16417e-010 0 -3.6325e-017
Spine  22.0106 0.452949 -8.13917
Spine1  2.00555 -2.1057 6.39785
HEad  -30.354 0.633364 1.03512
LeftShoulder1  -0.744325 5.60511 -29.2405
LeftArm  4.68585 -3.19103 -53.6252
LeftForeArm  55.4328 -74.2625 -34.879
LeftHand  -0.0640334 3.53143 2.95264
RightShoulder  -0.746268 -5.68653 27.543
RightArm  9.77433 -31.5076 34.0388
RightForeArm  18.9622 9.09474 3.45143
RightHand  0.0292723 2.58005 0.0964691
LeftUpLeg  -0.40113 3.14845 1.04668
LeftLeg  19.4475 6.50231 3.05593
LeftFoot  -19.0145 -0.0668885 -2.69839
LeftToes  3.13772e-010 -3.14513e-011 3.96022e-013
962
root  19.3869 38.4066 -2.17932 47.0834 85.5395 47.5107
RightUpLeg  -25.9087 -6.97349 -7.89922
RightLeg  12.7327 1.59583 0.0503972
RightFoot  -3.64591 -0.484359 6.79938
RightToes  -1.16417e-010 0 -3.6325e-017
Spine  21.5035 0.162951 -8.31186
Spine1  2.11308 -2.33528 5.94189
HEad  -30.2082 0.917216 0.754259
LeftShoulder1  -0.736565 5.57983 -29.2955
LeftArm  5.26278 -4.58914 -53.6253
LeftForeArm  54.2762 -74.0211 -34.3801
LeftHand  -0.0610657 3.87439 3.28703
RightShoulder  -0.709811 -5.60866 27.063
RightArm  9.53079 -34.6272 34.2451
RightForeArm  20.0438 9.90152 3.15894
RightHand  0.0975603 1.67106 2.3748
LeftUpLeg  2.42162 4.28778 0.912054
LeftLeg  18.2403 4.97049 2.46156
LeftFoot  -19.4613 -0.100622 -3.05906
LeftToes  3.13772e-010 -3.14513e-011 3.96022e-013
963
root  20.4963 38.1724 -1.78374 52.6898 85.2469 53.304
RightUpLeg  -24.85 -5.63623 -7.78637
RightLeg  13.3926 1.56987 0.0095565
RightFoot  -3.13532 -0.434136 5.77388
RightToes  -1.16417e-010 0 -3.6325e-017
Spine  20.7663 0.0432809 -8.32753
Spine1  1.6516 -2.41983 6.00642
HEad  -29.7495 0.842053 0.426636
LeftShoulder1  -0.798975 5.73646 -29.6097
LeftArm  5.62043 -4.80492 -53.5934
LeftForeArm  51.2929 -73.0029 -32.0698
LeftHand  -0.0551004 4.16688 3.32271
RightShoulder  -0.72049 -5.64083 27.0603
RightArm  10.0513 -35.5988 34.2581
RightForeArm  24.3149 9.49107 3.1451
RightHand  0.115166 -1.81742 6.19504
LeftUpLeg  4.85405 5.29548 1.45813
LeftLeg  17.4483 3.67553 2.01887
LeftFoot  -19.9137 -0.166943 -3.81836
LeftToes  3.13772e-010 -3.14513e-011 3.96022e-013
964
root  21.6241 38.0364 -1.37929 54.1904 85.826 54.5531
RightUpLeg  -24.2629 -4.46608 -6.60522
RightLeg  15.1911 0.453621 -0.216082
RightFoot  0.311723 -0.23848 2.50957
RightToes  -1.16417e-010 0 -3.6325e-017
Spine  19.6327 -0.26158 -6.84053
Spine1  1.7388 -2.57004 6.34497
HEad  -29.668 0.776912 -0.149909
LeftShoulder1  -0.809053 5.7619 -29.6496
LeftArm  5.9027 -4.37386 -53.7348
LeftForeArm  46.3554 -70.6828 -27.6766
LeftHand  -0.0501545 3.98827 2.54477
RightShoulder  -0.774179 -5.77711 27.4152
RightArm  9.56256 -35.0272 34.8592
RightForeArm  19.5442 8.31699 3.32002
RightHand  -0.0773463 3.62755 -1.71887
LeftUpLeg  7.08893 4.71618 2.59056
LeftLeg  16.0978 3.61837 1.98872
LeftFoot  -20.2218 -0.237829 -4.63324
LeftToes  3.13772e-010 -3.14513e-011 3.96022e-013
965
root  22.7157 37.8724 -1.00374 41.0437 86.9953 40.8718
RightUpLeg  -25.0825 -4.16204 -4.65945
RightLeg  17.9633 0.842795 0.0408239
RightFoot  5.50657 -0.00448457 0.178393
RightToes  -1.16417e-010 0 -3.6325e-017
Spine  19.1979 -0.703631 -3.38389
Spine1  0.826475 -2.38502 6.06779
HEad  -29.8646 0.368642 -0.750102
LeftShoulder1  -0.786656 5.66567 -30.2257
LeftArm  6.56786 -3.34844 -53.2629
LeftForeArm  40.2663 -66.9103 -22.5491
LeftHand  -0.0703421 3.25005 2.96023
RightShoulder  -0.865825 -6.00461 28.0384
RightArm  9.07876 -32.8712 35.4268
RightForeArm  20.8992 7.4607 3.25756
RightHand  -0.0345157 2.39869 -0.611589
LeftUpLeg  8.27882 2.01602 4.07523
LeftLeg  16.227 5.76019 2.61064
LeftFoot  -20.7945 -0.325201 -5.38405
LeftToes  3.13772e-010 -3.14513e-011 3.96022e-013
966
root  23.8377 37.6201 -0.673202 -0.0289612 87.3261 -0.0562744
RightUpLeg  -25.6696 -4.52347 -2.03025
RightLeg  23.0144 1.88591 0.672744
RightFoot  2.70485 0.160402 -1.13061
RightToes  -1.16417e-010 0 -3.6325e-017
Spine  18.6847 -1.12861 1.14417
Spine1  0.896338 -1.82318 4.68314
HEad  -31.2998 1.11345 -1.58773
LeftShoulder1  -0.728913 5.46837 -30.9386
LeftArm  6.89879 -2.29773 -52.7895
LeftForeArm  35.6259 -61.5955 -17.5567
LeftHand  -0.0746452 3.49842 3.6473
RightShoulder  -0.864064 -5.96451 28.5187
RightArm  8.35921 -28.1702 36.8428
RightForeArm  22.1703 6.31626 3.32503
RightHand  0.0749433 1.43173 1.17706
LeftUpLeg  8.79476 -0.842754 5.9684
LeftLeg  19.8954 8.47136 3.66429
LeftFoot  -21.7905 -0.596974 -7.99458
LeftToes  3.13772e-010 -3.14513e-011 3.96022e-013
967
root  24.8705 37.5343 -0.260507 -16.8998 86.4835 -16.4919
RightUpLeg  -24.7707 -5.59304 -0.290432
RightLeg  25.6164 3.21168 1.43843
RightFoot  -0.0827642 0.141824 -1.46221
RightToes  -1.16417e-010 0 -3.6325e-017
Spine  18.1312 -1.00742 3.07178
Spine1  1.52867 -1.35931 4.80006
HEad  -32.0206 1.94753 -1.96272
LeftShoulder1  -0.716565 5.40962 -31.4408
LeftArm  7.78271 -1.67351 -52.3187
LeftForeArm  32.3948 -54.0534 -12.8518
LeftHand  -0.044901 4.65592 3.57384
RightShoulder  -0.908118 -6.0374 29.2621
RightArm  8.74578 -21.117 38.1652
RightForeArm  20.9705 5.18119 4.00847
RightHand  -0.0283462 2.65852 -0.65254
LeftUpLeg  8.40389 -0.943091 7.61397
LeftLeg  25.1443 7.72837 4.25256
LeftFoot  -19.9832 -0.724724 -11.4099
LeftToes  3.13772e-010 -3.14513e-011 3.96022e-013
968
root  25.8222 37.5499 0.196347 -20.5455 85.9974 -19.6718
RightUpLeg  -23.4185 -4.75028 0.585898
RightLeg  27.3306 2.62157 1.23654
RightFoot  -2.56749 0.148124 -2.13659
RightToes  -1.16417e-010 0 -3.6325e-017
Spine  17.9753 -0.769283 4.06107
Spine1  1.38926 -0.889433 5.28772
HEad  -30.8004 1.46368 -1.55099
LeftShoulder1  -0.68499 5.31668 -31.6326
LeftArm  9.97077 -1.19734 -51.7591
LeftForeArm  29.5177 -44.1999 -8.86226
LeftHand  -0.0364434 4.84769 3.05051
RightShoulder  -0.930582 -6.08514 29.4793
RightArm  8.69667 -13.7634 40.3521
RightForeArm  21.2481 5.09159 4.52002
RightHand  -0.0445596 3.32818 -0.782196
LeftUpLeg  6.25682 -1.2047 8.6167
LeftLeg  32.4427 6.80132 5.04247
LeftFoot  -14.5785 -0.307627 -10.7028
LeftToes  3.13772e-010 -3.14513e-011 3.96022e-013
969
root  26.7312 37.6954 0.537216 -22.4305 85.4489 -21.6126
RightUpLeg  -21.8048 -4.06809 1.27971
RightLeg  27.2801 2.44721 1.13303
RightFoot  -4.22755 0.10235 -2.1084
RightToes  -1.16417e-010 0 -3.6325e-017
Spine  16.9901 -0.79498 6.19594
Spine1  1.21144 -0.244855 3.7724
HEad  -29.4448 1.12568 -1.80199
LeftShoulder1  -0.620854 5.1454 -31.6621
LeftArm  13.4436 -0.796923 -51.3241
LeftForeArm  25.2953 -33.1347 -5.71179
LeftHand  -0.0103291 6.18602 3.04632
RightShoulder  -0.844214 -5.87254 29.0104
RightArm  8.14959 -7.07582 43.1578
RightForeArm  19.1295 6.8355 4.78395
RightHand  -0.13893 4.60668 -1.89609
LeftUpLeg  2.22396 -1.70603 8.83545
LeftLeg  40.6748 6.28911 6.06905
LeftFoot  -7.16897 0.229791 -3.91014
LeftToes  3.13772e-010 -3.14513e-011 3.96022e-013
970
root  27.605 37.8789 0.820156 -21.6567 84.9426 -20.762
RightUpLeg  -19.8499 -3.91535 1.69358
RightLeg  26.6768 2.72192 1.24803
RightFoot  -5.47465 0.0690525 -2.06149
RightToes  -1.16417e-010 0 -3.6325e-017
Spine  15.794 -0.823404 8.32878
Spine1  1.67797 0.385517 2.01373
HEad  -27.462 0.272867 -2.19559
LeftShoulder1  -0.579196 5.04018 -31.5378
LeftArm  13.9779 -0.225826 -50.6537
LeftForeArm  23.5476 -22.2706 -4.76799
LeftHand  -0.0152948 7.71555 1.36601
RightShoulder  -0.725296 -5.57675 28.3362
RightArm  8.24206 -0.683424 45.5753
RightForeArm  16.7581 10.7984 4.76265
RightHand  -0.0437654 3.49052 -0.832198
LeftUpLeg  -1.47434 -1.97739 8.86196
LeftLeg  47.1026 2.79341 3.61271
LeftFoot  -7.79703 0.17285 -4.26135
LeftToes  3.13772e-010 -3.14513e-011 3.96022e-013
971
root  28.4617 38.1082 1.09301 -14.9915 84.4878 -13.8391
RightUpLeg  -17.5175 -4.10887 1.41891
RightLeg  25.6159 3.44481 1.56026
RightFoot  -6.48258 0.0377952 -1.94104
RightToes  -1.16417e-010 0 -3.6325e-017
Spine  14.9138 -0.461031 9.28691
Spine1  2.1629 1.13468 0.827091
HEad  -26.8637 0.558047 -2.12096
LeftShoulder1  -0.62069 5.1219 -32.2061
LeftArm  2.65333 0.687704 -48.3263
LeftForeArm  34.418 -12.2436 -8.20393
LeftHand  -0.0651925 9.00754 -0.631408
RightShoulder  -0.803895 -5.7962 28.4517
RightArm  11.2112 6.43149 46.4286
RightForeArm  11.3455 15.8556 4.70981
RightHand  -0.0787551 4.03851 -1.24173
LeftUpLeg  -4.9035 -1.75994 8.18378
LeftLeg  51.6242 -0.0547002 0.415858
LeftFoot  -9.36146 0.174869 -6.71144
LeftToes  3.13772e-010 -3.14513e-011 3.96022e-013
972
root  29.361 38.3377 1.34318 -6.13876 83.593 -4.5451
RightUpLeg  -15.0524 -4.46552 0.777978
RightLeg  24.6683 4.77674 2.11079
RightFoot  -7.47241 0.0288147 -2.33664
RightToes  -1.16417e-010 0 -3.6325e-017
Spine  14.2081 0.103032 9.74529
Spine1  2.51193 1.98764 -0.140178
HEad  -26.3046 -0.0576003 -2.47442
LeftShoulder1  -0.553701 4.95505 -32.008
LeftArm  -5.97308 4.24392 -46.2942
LeftForeArm  41.5653 -6.4959 -8.27234
LeftHand  -0.102827 10.635 -0.932284
RightShoulder  -0.723577 -5.62531 27.424
RightArm  12.453 12.5319 47.9721
RightForeArm  8.7729 20.8073 4.28228
RightHand  -0.154254 5.67951 -1.93498
LeftUpLeg  -7.75099 -0.867401 7.15946
LeftLeg  54.0967 -0.651637 -0.473722
LeftFoot  -9.87233 0.147465 -6.86877
LeftToes  3.13772e-010 -3.14513e-011 3.96022e-013
973
root  30.2405 38.5676 1.58711 -1.12471 83.0461 0.884705
RightUpLeg  -12.3512 -5.49877 0.228631
RightLeg  23.2022 6.33364 2.57022
RightFoot  -8.28893 0.0104428 -2.50723
RightToes  -1.16417e-010 0 -3.6325e-017
Spine  13.4585 0.510559 10.3655
Spine1  2.78856 2.67307 -1.44878
HEad  -25.1228 -0.479175 -3.18591
LeftShoulder1  -0.572416 5.00119 -32.0541
LeftArm  -6.53435 7.62454 -43.423
LeftForeArm  43.2707 -4.12318 -7.64229
LeftHand  -0.193298 10.4515 -2.9945
RightShoulder  -0.665768 -5.51636 26.3856
RightArm  12.2236 19.1015 49.5216
RightForeArm  8.20184 23.6556 4.62691
RightHand  -0.310941 5.76102 -3.56168
LeftUpLeg  -10.5104 -0.160571 6.42736
LeftLeg  54.6629 -0.0142087 0.460261
LeftFoot  -10.5399 0.109296 -6.58238
LeftToes  3.13772e-010 -3.14513e-011 3.96022e-013
